<?xml version="1.0" standalone="no"?>
<!DOCTYPE svg PUBLIC "-//W3C//DTD SVG 20010904//EN"
 "http://www.w3.org/TR/2001/REC-SVG-20010904/DTD/svg10.dtd">
<svg version="1.0" xmlns="http://www.w3.org/2000/svg"
 width="1200.000000pt" height="1200.000000pt" viewBox="0 0 1200.000000 1200.000000"
 preserveAspectRatio="xMidYMid meet">
<metadata>
Created by potrace 1.14, written by Peter Selinger 2001-2017
</metadata>
<g transform="translate(0.000000,1200.000000) scale(0.100000,-0.100000)"
fill="#000000" stroke="none">
<path d="M5718 11995 c-1 -1 -55 -6 -118 -9 -63 -4 -128 -8 -145 -11 -16 -2
-57 -6 -90 -9 -84 -8 -297 -36 -315 -41 -8 -3 -33 -7 -55 -10 -22 -3 -87 -15
-144 -26 -57 -12 -116 -23 -130 -26 -14 -2 -111 -26 -216 -53 -647 -165 -1271
-445 -1835 -823 -107 -72 -259 -179 -295 -208 -11 -10 -69 -56 -130 -105 -341
-271 -674 -608 -957 -967 -138 -174 -151 -193 -281 -387 -114 -171 -114 -170
-220 -355 -95 -164 -297 -567 -297 -591 0 -3 -9 -24 -19 -48 -120 -263 -296
-825 -346 -1106 -2 -14 -9 -50 -15 -80 -19 -97 -39 -214 -45 -260 -3 -25 -7
-58 -10 -75 -3 -16 -7 -42 -9 -56 -2 -15 -7 -66 -11 -115 -4 -49 -9 -91 -10
-94 -10 -17 -20 -284 -19 -535 0 -258 6 -425 19 -550 2 -22 7 -68 10 -102 3
-34 8 -72 10 -85 2 -13 6 -45 10 -73 13 -99 16 -118 29 -195 3 -19 8 -47 10
-63 3 -15 7 -35 10 -45 3 -9 7 -35 11 -57 3 -22 14 -77 25 -123 11 -46 22 -96
25 -110 3 -15 14 -61 25 -102 12 -41 22 -82 24 -90 50 -199 189 -587 296 -830
95 -215 286 -576 398 -750 123 -193 379 -553 411 -580 3 -3 40 -45 80 -95 214
-258 515 -559 761 -760 47 -38 87 -72 90 -76 3 -3 52 -41 110 -84 58 -44 107
-82 110 -85 3 -3 25 -19 50 -36 309 -213 524 -342 792 -475 79 -39 154 -76
168 -84 43 -22 290 -126 400 -168 342 -129 753 -241 1135 -306 59 -11 81 -14
180 -26 28 -3 59 -8 70 -10 11 -2 54 -7 95 -10 41 -4 86 -9 100 -11 151 -25
930 -25 1080 0 14 2 59 7 100 11 41 3 102 10 135 15 33 5 80 11 105 14 25 4
56 8 70 11 270 47 361 67 570 121 473 122 1016 342 1414 573 49 28 90 51 92
51 6 0 250 155 344 218 1106 749 1955 1890 2353 3162 25 80 51 165 57 190 6
25 15 56 20 70 5 14 12 36 14 50 3 14 15 66 27 115 11 50 22 99 25 110 2 11 6
31 9 45 3 14 7 36 10 50 3 14 7 36 10 50 8 40 14 72 20 110 3 20 7 45 9 55 12
62 30 198 41 310 4 39 9 81 10 95 27 215 27 830 1 1095 -9 95 -18 173 -21 195
-2 14 -6 43 -9 65 -43 307 -118 655 -201 930 -24 79 -114 344 -125 370 -5 11
-27 66 -49 122 -215 546 -552 1114 -940 1583 -174 209 -386 435 -557 590 -33
30 -80 73 -105 96 -77 70 -270 227 -389 316 -737 551 -1616 933 -2515 1093
-77 14 -153 27 -170 29 -38 5 -199 25 -245 31 -19 2 -67 7 -105 10 -39 4 -90
9 -115 11 -50 6 -706 14 -712 9z m592 -279 c69 -4 141 -9 160 -10 89 -8 196
-19 211 -21 9 -2 40 -6 70 -10 30 -3 79 -10 109 -15 30 -5 73 -12 94 -15 133
-19 486 -100 640 -146 802 -240 1478 -605 2112 -1141 160 -135 406 -373 541
-523 420 -466 772 -1016 1016 -1586 86 -201 192 -492 227 -624 5 -16 16 -57
25 -90 9 -33 18 -67 21 -75 44 -165 111 -500 134 -670 6 -47 13 -96 15 -110 2
-14 7 -61 11 -105 3 -44 8 -88 10 -98 6 -36 18 -339 18 -487 -1 -142 -10 -377
-19 -475 -17 -179 -19 -189 -40 -335 -24 -160 -25 -170 -56 -320 -38 -183 -34
-164 -64 -284 -183 -706 -498 -1370 -928 -1956 -458 -623 -1023 -1136 -1702
-1545 -146 -88 -508 -274 -630 -324 -44 -18 -98 -41 -120 -51 -166 -75 -582
-209 -820 -265 -97 -23 -104 -24 -155 -35 -25 -5 -56 -12 -70 -15 -14 -3 -38
-8 -55 -10 -16 -3 -66 -12 -110 -20 -119 -21 -241 -37 -385 -50 -36 -4 -80 -8
-97 -11 -168 -22 -796 -21 -953 1 -14 2 -56 6 -95 10 -38 3 -81 8 -95 10 -14
2 -50 7 -80 10 -49 6 -284 44 -365 60 -120 23 -248 54 -475 115 -104 28 -409
131 -475 160 -11 5 -81 34 -155 65 -313 131 -620 295 -915 490 -218 145 -212
140 -435 313 -187 146 -469 411 -672 632 -419 459 -803 1063 -1038 1630 -28
69 -55 134 -60 145 -42 96 -160 460 -195 605 -2 8 -8 30 -14 48 -5 17 -8 32
-6 32 3 0 0 12 -6 28 -6 15 -22 81 -36 147 -13 66 -27 129 -29 140 -2 11 -7
36 -10 55 -3 19 -9 60 -14 90 -16 96 -19 114 -25 175 -4 33 -8 67 -10 75 -2 8
-7 51 -11 95 -3 44 -8 87 -9 96 -7 36 -19 344 -18 484 0 148 10 412 18 477 2
18 7 62 10 98 3 36 8 76 10 90 2 14 7 50 10 80 9 76 34 236 46 288 5 23 12 59
15 78 7 45 8 49 33 159 282 1241 984 2364 1986 3176 225 183 499 371 735 505
52 30 102 58 110 64 49 31 369 186 500 243 340 145 731 270 1035 331 11 2 65
13 120 24 55 11 134 26 175 32 41 7 82 14 90 15 9 2 43 6 75 10 33 4 69 8 80
10 11 2 56 6 100 10 44 4 90 8 103 10 12 2 86 7 165 11 78 3 143 7 144 8 5 4
365 -2 473 -8z"/>
<path d="M5808 11145 c-2 -1 -57 -5 -123 -9 -125 -7 -183 -12 -250 -20 -22 -3
-67 -8 -100 -12 -33 -3 -62 -8 -65 -9 -3 -2 -33 -7 -65 -10 -33 -4 -67 -9 -75
-10 -8 -2 -76 -15 -150 -30 -74 -15 -142 -29 -150 -31 -476 -114 -957 -302
-1355 -530 -55 -31 -109 -62 -120 -68 -11 -6 -34 -21 -52 -33 -17 -13 -33 -23
-36 -23 -3 0 -56 -34 -118 -75 -427 -289 -764 -591 -1106 -995 -68 -81 -200
-256 -296 -391 l-46 -67 27 -5 c29 -6 736 0 837 7 33 2 121 7 195 11 74 3 162
8 195 10 493 36 507 36 566 4 140 -77 140 -297 -1 -369 -46 -23 -77 -29 -260
-45 -30 -3 -73 -7 -95 -9 -22 -2 -87 -8 -145 -12 -117 -8 -151 -11 -164 -13
-11 -1 -39 86 277 -851 151 -448 307 -912 346 -1030 40 -118 76 -224 80 -235
5 -11 25 -69 45 -130 36 -111 145 -438 701 -2090 168 -500 330 -981 358 -1067
29 -87 54 -158 57 -158 4 0 471 1388 475 1410 1 5 463 1394 472 1420 3 8 45
133 93 276 l87 262 -54 148 c-30 82 -79 214 -108 294 -29 80 -75 204 -100 275
-26 72 -63 173 -82 225 -19 52 -52 142 -73 200 -195 536 -382 1045 -386 1049
-5 6 -6 6 -141 15 -50 3 -106 8 -125 10 -18 3 -64 8 -103 11 -176 17 -225 24
-257 41 -140 72 -137 303 5 376 47 24 104 27 272 14 140 -11 184 -13 315 -21
63 -4 138 -8 165 -10 511 -31 1256 -23 1775 20 303 25 376 24 430 -4 51 -26
64 -40 91 -99 39 -82 16 -189 -52 -247 -53 -44 -96 -54 -294 -70 -44 -4 -91
-8 -105 -10 -14 -2 -74 -7 -135 -11 -128 -8 -169 -11 -172 -13 -2 -1 137 -415
672 -2006 52 -154 191 -568 309 -920 118 -352 344 -1022 501 -1490 158 -467
306 -908 329 -980 23 -71 45 -125 48 -120 5 9 36 109 44 140 1 6 44 147 94
315 51 168 93 310 94 315 1 6 9 33 18 60 23 72 180 597 182 609 1 6 4 16 7 21
4 6 9 24 13 40 7 31 45 157 98 325 146 468 235 774 276 960 17 74 33 151 36
170 3 19 8 45 10 56 24 117 38 461 22 569 -3 22 -8 65 -11 95 -36 339 -188
751 -416 1127 -180 297 -253 420 -297 503 -84 160 -148 330 -171 457 -6 32
-13 69 -16 83 -8 39 -9 220 -2 271 13 86 46 197 80 272 143 309 431 508 739
511 54 1 98 3 98 5 0 5 -35 36 -165 145 -534 450 -1166 790 -1835 990 -153 45
-351 95 -450 112 -14 2 -45 9 -70 14 -25 6 -62 12 -84 15 -21 2 -46 6 -55 9
-9 3 -43 8 -76 12 -33 3 -69 8 -80 9 -63 9 -115 15 -300 31 -69 6 -541 14
-547 9z"/>
<path d="M10525 8415 c17 -178 20 -246 20 -470 0 -215 -6 -365 -20 -465 -2
-14 -6 -47 -9 -75 -3 -27 -8 -59 -10 -70 -2 -11 -7 -45 -11 -75 -4 -30 -18
-107 -32 -170 -14 -63 -28 -126 -30 -140 -34 -164 -127 -464 -228 -735 -37
-99 -73 -198 -81 -220 -7 -22 -47 -139 -89 -260 -42 -121 -103 -296 -135 -390
-32 -93 -97 -280 -143 -415 -218 -629 -273 -786 -322 -930 -30 -85 -70 -202
-90 -260 -53 -150 -198 -568 -260 -750 -90 -263 -150 -435 -235 -680 -45 -129
-103 -298 -130 -375 -26 -77 -66 -192 -88 -255 -22 -63 -39 -117 -37 -118 14
-14 433 270 614 415 193 155 464 408 578 539 37 42 138 158 153 173 94 102
327 426 450 626 108 175 249 441 307 579 14 34 34 79 44 101 128 281 273 776
334 1145 3 19 7 46 10 60 2 14 7 45 10 70 4 25 8 56 10 70 2 14 7 52 10 85 3
33 8 78 10 100 29 286 25 769 -10 1045 -3 25 -8 65 -11 90 -6 52 -21 162 -29
205 -17 97 -49 251 -66 325 -21 86 -27 107 -78 285 -79 271 -216 615 -344 860
-17 33 -39 76 -49 95 l-18 35 5 -50z"/>
<path d="M1287 8073 c-3 -10 -24 -63 -47 -118 -108 -257 -222 -625 -276 -890
-15 -76 -24 -125 -29 -155 -3 -19 -8 -42 -10 -50 -2 -8 -7 -35 -10 -60 -3 -25
-8 -56 -10 -70 -43 -248 -63 -770 -41 -1060 13 -177 15 -204 22 -255 3 -27 8
-63 10 -80 2 -16 6 -48 9 -70 4 -22 8 -52 11 -67 74 -483 229 -980 448 -1433
86 -178 213 -406 297 -533 27 -41 49 -77 49 -79 0 -3 13 -22 28 -42 16 -20 50
-67 77 -105 26 -38 51 -74 56 -80 5 -6 48 -60 95 -121 134 -170 273 -324 439
-485 141 -137 199 -190 315 -285 47 -38 87 -72 90 -75 31 -34 344 -251 515
-357 130 -80 425 -240 425 -229 0 5 -358 990 -400 1101 -11 28 -87 237 -170
465 -83 228 -175 480 -205 560 -29 80 -83 226 -118 325 -36 99 -134 367 -217
595 -166 452 -214 586 -254 700 -15 41 -33 91 -41 110 -8 19 -58 154 -111 300
-53 146 -138 380 -189 520 -105 286 -195 534 -345 945 -56 154 -117 321 -135
370 -18 50 -54 149 -80 220 -26 72 -60 165 -76 208 -15 42 -45 123 -65 180
-42 114 -49 126 -57 100z"/>
<path d="M6023 5357 c-72 -215 -239 -700 -283 -824 -17 -49 -33 -95 -35 -103
-2 -8 -34 -100 -70 -205 -37 -104 -82 -235 -101 -290 -18 -55 -72 -212 -119
-350 -48 -137 -113 -326 -145 -420 -32 -93 -100 -289 -150 -435 -50 -146 -95
-276 -100 -290 -4 -14 -52 -151 -105 -305 -53 -154 -107 -311 -120 -350 -19
-58 -88 -256 -227 -658 -11 -32 -18 -61 -15 -63 6 -6 17 -9 212 -59 130 -32
346 -76 440 -90 22 -3 51 -7 65 -10 14 -2 41 -7 61 -9 33 -5 62 -8 189 -21
119 -12 304 -19 490 -19 230 0 394 9 560 29 25 3 68 8 95 11 28 3 57 7 65 9 8
2 34 6 58 9 96 13 127 18 132 21 4 2 29 7 56 11 27 3 52 8 55 10 3 2 19 5 35
8 116 21 453 114 611 169 l32 11 -18 35 c-18 36 -31 70 -206 551 -53 146 -100
274 -105 285 -4 11 -50 135 -100 275 -51 140 -108 298 -127 350 -49 132 -97
266 -144 395 -22 61 -49 133 -59 160 -38 102 -130 355 -195 535 -36 102 -71
194 -76 205 -5 11 -22 58 -38 105 -17 47 -78 216 -136 375 -59 160 -126 344
-150 410 -52 146 -232 639 -247 678 -6 15 -13 29 -17 31 -3 2 -34 -78 -68
-177z"/>
</g>
</svg>
