<?xml version="1.0" standalone="no"?>
<!DOCTYPE svg PUBLIC "-//W3C//DTD SVG 20010904//EN"
 "http://www.w3.org/TR/2001/REC-SVG-20010904/DTD/svg10.dtd">
<svg version="1.0" xmlns="http://www.w3.org/2000/svg"
 width="654.000000pt" height="654.000000pt" viewBox="0 0 654.000000 654.000000"
 preserveAspectRatio="xMidYMid meet">
<metadata>
Created by potrace 1.14, written by Peter Selinger 2001-2017
</metadata>
<g transform="translate(0.000000,654.000000) scale(0.100000,-0.100000)"
fill="#000000" stroke="none">
<path d="M5617 4648 c-445 -34 -790 -216 -1035 -545 -132 -179 -209 -374 -256
-650 l-5 -33 318 0 318 0 22 90 c23 94 56 185 77 210 6 8 15 25 18 38 4 12 11
22 16 22 5 0 11 9 15 19 3 11 39 53 80 95 118 119 259 192 425 222 92 16 297
18 376 3 27 -5 60 -12 74 -14 87 -16 269 -84 328 -123 l22 -14 0 295 0 295
-81 22 c-231 62 -480 86 -712 68z"/>
<path d="M79 4603 c-4 -36 -3 -1167 2 -1174 3 -5 307 -8 744 -7 l739 3 -1 28
c-3 75 49 66 -440 69 l-438 3 0 295 0 295 470 0 470 0 3 248 2 247 -775 0
c-426 0 -775 -3 -776 -7z"/>
<path d="M2120 4016 l0 -596 305 0 305 0 2 362 3 362 140 0 c77 -1 167 -4 200
-7 155 -18 259 -77 320 -182 77 -131 65 -382 -25 -495 l-32 -40 346 0 345 0
15 48 c57 194 54 431 -10 621 -35 105 -74 171 -154 260 -65 73 -231 167 -357
202 -180 50 -196 51 -815 56 l-588 5 0 -596z"/>
<path d="M9 3358 c-1 -36 -1 -272 0 -298 1 -19 8 -20 129 -20 121 0 128 1 129
20 2 19 -4 20 -106 20 l-109 0 2 59 1 58 88 -1 c73 -1 90 1 97 15 5 9 6 19 3
23 -3 3 -47 6 -97 6 l-91 0 -1 50 c0 39 3 50 15 51 9 0 55 1 104 1 83 0 87 1
87 21 0 21 -4 22 -125 22 l-125 1 -1 -28z"/>
<path d="M297 3382 c-2 -4 26 -82 62 -174 63 -161 67 -168 93 -168 16 0 28 4
28 10 0 5 29 82 64 170 35 88 61 160 57 161 -3 0 -13 2 -22 4 -17 3 -26 -16
-88 -186 -17 -47 -31 -91 -31 -98 0 -34 -22 12 -66 136 -26 76 -48 139 -49
141 -5 7 -45 10 -48 4z"/>
<path d="M654 3381 c-2 -2 -4 -80 -4 -173 l0 -169 127 3 c111 3 128 5 131 20
3 15 -9 18 -105 20 l-108 3 0 55 0 55 85 2 c47 0 90 2 97 2 6 1 10 9 9 19 -2
14 -17 18 -97 22 l-94 5 0 48 c0 35 3 47 15 48 8 0 54 1 103 1 82 0 87 1 87
21 0 21 -4 22 -121 22 -66 0 -122 -2 -125 -4z"/>
<path d="M975 3381 c-3 -2 -5 -80 -5 -173 0 -168 0 -168 23 -168 21 0 22 4 21
74 -1 69 1 75 22 79 49 9 87 -15 133 -85 38 -58 48 -68 73 -68 21 0 27 4 22
13 -27 43 -79 115 -95 128 -18 16 -18 17 6 23 77 19 89 135 17 165 -28 12
-208 22 -217 12z m188 -46 c27 -11 40 -41 27 -65 -15 -29 -38 -37 -107 -39
-51 -1 -62 1 -66 16 -4 14 -2 95 2 99 5 5 130 -5 144 -11z"/>
<path d="M1283 3383 c-7 -3 15 -43 54 -100 l66 -95 -1 -74 c0 -70 1 -74 23
-74 22 0 23 4 23 73 l0 73 66 94 c36 52 66 97 66 100 0 4 -10 6 -22 5 -16 -1
-38 -23 -73 -74 -27 -39 -54 -70 -60 -69 -5 2 -31 35 -56 74 -44 66 -57 76
-86 67z"/>
<path d="M1602 3365 c3 -17 11 -20 51 -22 27 -1 51 -4 54 -7 3 -3 6 -71 5
-151 l-1 -145 25 0 24 0 0 150 c0 168 -7 155 78 150 27 -1 32 2 32 22 0 23 0
23 -135 23 -131 0 -136 0 -133 -20z"/>
<path d="M1926 3382 c-3 -3 -6 -81 -6 -174 l0 -168 24 0 c23 0 24 3 24 58 0
112 -9 102 87 102 96 0 88 9 87 -97 -1 -60 0 -63 23 -63 l25 0 0 168 c0 93 -3
171 -6 174 -3 3 -14 4 -25 1 -16 -5 -19 -14 -18 -57 2 -89 9 -83 -86 -84 l-85
0 -1 37 c-2 94 -4 104 -21 107 -9 1 -19 -1 -22 -4z"/>
<path d="M2283 3383 c-10 -4 -13 -47 -13 -174 l0 -169 25 0 25 0 0 173 c0 177
-1 182 -37 170z"/>
<path d="M2404 3379 c-5 -8 -9 -258 -5 -321 1 -11 9 -18 21 -18 23 0 22 -6 22
155 0 87 2 106 11 93 7 -9 47 -69 91 -132 63 -94 83 -116 102 -116 l24 0 -2
172 c-3 164 -4 171 -23 173 -20 1 -21 -4 -20 -119 1 -67 0 -125 -3 -129 -2 -4
-43 49 -91 119 -79 117 -111 148 -127 123z"/>
<path d="M2820 3368 c-65 -33 -99 -123 -77 -211 26 -107 147 -153 260 -98 l47
23 0 68 0 68 -72 -2 c-66 -1 -73 -3 -73 -21 0 -16 7 -20 40 -21 22 -1 46 -2
53 -3 16 -1 16 -56 -1 -70 -23 -18 -90 -28 -130 -18 -55 14 -85 62 -82 130 3
68 20 103 60 122 50 23 100 19 130 -10 14 -14 25 -30 25 -35 0 -12 37 -13 44
-2 9 15 -35 70 -69 86 -43 21 -106 18 -155 -6z"/>
<path d="M3254 3381 c-2 -2 -4 -80 -4 -173 l0 -168 25 0 c24 0 25 2 25 70 l0
70 64 0 c36 0 76 4 90 10 80 30 75 167 -7 186 -36 8 -186 12 -193 5z m194 -55
c19 -19 21 -47 6 -77 -12 -24 -19 -26 -83 -28 l-71 -2 0 60 c0 54 2 60 23 63
42 6 112 -3 125 -16z"/>
<path d="M3570 3213 l0 -173 25 0 c24 0 25 2 25 75 l0 75 45 0 c50 0 62 -10
118 -96 24 -36 39 -50 60 -52 34 -4 34 5 -3 54 -16 21 -30 43 -30 47 0 4 -12
19 -27 32 -19 16 -23 24 -13 25 31 0 70 44 75 83 4 33 1 43 -24 68 -18 17 -41
29 -58 30 -15 1 -65 2 -111 3 l-82 1 0 -172z m205 120 c12 -7 22 -23 23 -41 3
-41 -27 -58 -110 -61 l-68 -2 0 54 c0 29 2 56 5 59 9 9 130 2 150 -9z"/>
<path d="M3994 3371 c-79 -36 -114 -175 -65 -255 75 -120 254 -100 296 33 4
14 7 47 6 74 -1 68 -33 121 -88 147 -53 25 -96 25 -149 1z m151 -51 c42 -40
53 -146 19 -197 -32 -49 -108 -62 -160 -28 -70 46 -67 192 4 238 36 23 105 17
137 -13z"/>
<path d="M4374 3376 c-72 -31 -110 -131 -85 -223 17 -62 53 -100 108 -111 88
-19 154 12 177 84 9 28 -24 44 -39 18 -37 -63 -85 -83 -143 -59 -17 8 -38 28
-48 46 -18 35 -20 111 -5 151 13 35 58 68 92 68 29 0 79 -18 79 -29 1 -21 31
-42 50 -36 21 7 21 8 4 33 -25 38 -39 51 -69 62 -36 14 -84 12 -121 -4z"/>
<path d="M4640 3213 l0 -173 130 0 c123 0 130 1 130 20 0 19 -7 20 -105 20
-63 0 -105 4 -106 10 -1 6 -1 26 -1 45 0 19 0 41 1 49 1 10 22 13 84 13 110 1
106 0 104 23 -1 18 -8 20 -94 20 -82 0 -93 2 -94 18 0 9 -2 27 -3 39 -5 42 7
46 108 45 89 -1 96 1 96 19 0 23 11 21 -132 23 l-118 1 0 -172z"/>
<path d="M4959 3328 c0 -32 0 -87 0 -123 0 -36 0 -88 0 -116 l1 -51 100 4 c96
4 102 5 131 35 83 82 57 267 -41 298 -13 4 -61 8 -107 9 l-83 2 -1 -58z m182
2 c45 -19 65 -96 46 -173 -13 -52 -48 -73 -122 -76 l-60 -2 0 128 c0 95 3 129
13 133 20 8 93 2 123 -10z"/>
<path d="M5307 3377 c-2 -7 -3 -67 -1 -135 2 -104 6 -128 24 -156 30 -50 110
-66 177 -36 58 27 65 47 70 200 l4 137 -23 -2 c-22 -2 -23 -4 -26 -126 -1 -68
-7 -134 -13 -146 -23 -43 -106 -50 -144 -12 -17 17 -21 37 -25 151 -4 113 -7
131 -22 134 -9 1 -18 -3 -21 -9z"/>
<path d="M5654 3381 c-2 -2 -4 -80 -4 -173 l0 -168 25 0 c24 0 25 2 25 75 l0
75 44 0 c38 0 50 -5 75 -32 17 -18 36 -45 42 -60 6 -16 15 -28 20 -28 5 0 9
-7 9 -15 0 -10 10 -15 30 -15 17 0 30 3 30 8 0 12 -50 84 -83 120 -23 24 -27
32 -15 32 31 0 68 43 73 83 4 33 1 43 -24 68 -16 16 -40 29 -53 30 -110 4
-190 4 -194 0z m213 -56 c17 -24 17 -46 -1 -70 -11 -16 -30 -20 -90 -23 l-76
-4 0 54 c0 30 2 57 5 60 3 3 37 4 77 3 56 -2 74 -6 85 -20z"/>
<path d="M6090 3370 c-10 -18 -39 -93 -105 -267 l-24 -63 24 0 c19 0 27 9 43
51 l19 52 63 1 c73 2 85 -5 103 -59 12 -35 18 -40 47 -43 27 -3 32 -1 24 10
-6 7 -23 45 -39 83 -15 39 -36 88 -45 110 -9 22 -25 60 -35 85 -10 25 -20 46
-21 48 -1 1 -11 4 -23 7 -13 2 -25 -3 -31 -15z m55 -103 c14 -37 25 -71 25
-76 0 -5 -24 -9 -53 -10 l-53 0 26 78 c14 43 26 78 27 77 1 -1 14 -32 28 -69z"/>
<path d="M6322 3376 c-6 -9 -8 -210 -3 -313 1 -22 4 -23 106 -23 98 0 105 1
105 20 0 17 -8 19 -82 22 l-83 3 -2 140 c-1 173 0 162 -18 162 -8 0 -19 -5
-23 -11z"/>
<path d="M76 2463 l0 -538 807 -3 807 -2 0 245 0 245 -503 0 -503 0 0 293 0
292 -304 3 -305 2 1 -537z"/>
<path d="M2120 2460 l0 -540 305 0 305 0 0 463 0 462 153 1 c156 0 374 11 386
18 3 2 27 7 51 11 65 10 216 61 280 95 l55 29 -767 1 -768 0 0 -540z"/>
<path d="M4326 2968 c36 -326 200 -624 465 -843 110 -92 350 -195 514 -221 22
-3 43 -8 46 -10 27 -16 364 -24 514 -11 197 17 399 64 508 119 l37 18 0 275 0
275 -87 -44 c-204 -102 -468 -148 -693 -121 -63 8 -192 40 -218 55 -9 6 -28
14 -42 20 -90 36 -212 147 -286 262 -44 66 -104 206 -104 240 0 17 -21 18
-329 18 l-328 0 3 -32z"/>
</g>
</svg>
